<?xml version="1.0" encoding="utf-8"?>
<!-- Generator: Adobe Illustrator 25.2.3, SVG Export Plug-In . SVG Version: 6.00 Build 0)  -->
<svg version="1.1" id="Layer_1" xmlns="http://www.w3.org/2000/svg" xmlns:xlink="http://www.w3.org/1999/xlink" x="0px" y="0px"
	 viewBox="0 0 72 71.4" style="enable-background:new 0 0 72 71.4;" xml:space="preserve">
<style type="text/css">
	.st0{fill:#BAD1A4;}
	.st1{fill:#266E34;}
	.st2{fill:#FFFFFF;}
	.st3{fill:#E79BC0;}
	.st4{fill:#595A5C;}
	.st5{fill:#231F20;}
</style>
<g>
	<circle class="st0" cx="36" cy="35.7" r="33.5"/>
	<path class="st1" d="M36,3.7c17.6,0,32,14.4,32,32s-14.4,32-32,32S4,53.3,4,35.7S18.4,3.7,36,3.7 M36,0.7c-19.3,0-35,15.7-35,35
		s15.7,35,35,35s35-15.7,35-35S55.3,0.7,36,0.7L36,0.7z"/>
</g>
<path class="st2" d="M45.6,53.1c6.2,0.3,10.8-2.1,11.4-7.6c0.5-4.2-1.3-8.5-3.2-12.3c1.3-1.5,2.1-3.5,2.2-5.5c0.2-1.6,0-3.3-0.4-4.9
	h0.2l1.6-0.3c0,0.7,0,1.4,0,2c-0.2,3.2-0.3,6.4-0.4,9.5c0,1,0.7,1.8,1.7,1.9c0.2,0,0.4,0,0.5-0.1c1.4-0.3,1.9-2,1.9-3.1
	c0.1-3.5,0.3-7.1,0.5-10.6c1.1,0,2.1,0.2,3.2,0.6c2.5,1,4.5-3.9,2.1-4.9c-1.6-0.6-3.3-0.9-5-0.8c0.1-1.3,0.4-2.6,1.5-3.2
	c2.4-1.4,4.1,1.1,4.4,3.2c0.5,3.4,4.5,1.4,4.1-1.3c-0.5-3.2-2-6.9-5.8-7.3c-3-0.1-5.7,1.5-7.1,4.1c-0.8,1.6-1.3,3.3-1.4,5
	c-0.6,0.1-1.3,0.2-1.9,0.3c-0.8,0.2-1.5,0.9-1.8,1.7c-1.5-1.8-3.7-2.8-6.1-2.7c-3.7-0.1-7,2-8.5,5.4c-1.1-3.3-3.9-5.4-8.2-5.2
	c-3.1,0.1-6.1,1.5-8,4c0-0.6,0-1.2,0-1.8c-0.2-3.1-5.1-1.4-4.9,1.1c0.2,2.3,0.1,4.6-0.4,6.8c-0.2,0.9-0.4,1.7-0.8,2.5
	c-0.1,0.3-0.2,0.6-0.4,0.8c-1.4-1.4-1.7-4.2-1.8-6.5c0.1-0.5,0.1-1,0.1-1.5c0-0.3,0-0.6-0.2-0.9c-0.2-1.4-1.6-1.6-2.8-1.2
	c-1.2,0.1-2.2,0.7-2.3,1.9c0,2-0.4,4.1-1,6c-0.4,0.9-0.8,1.7-1.3,2.5c-0.3-0.5-0.8-1.2-0.9-1.4c-0.4-0.9-0.6-1.8-0.8-2.7
	c-0.4-2.2-0.6-4.5-0.4-6.8c0.2-2.8-5.1-2.7-5.3-0.2c-0.3,4.5-0.3,14.5,5.9,15.6c2.2,0.4,4.5-0.5,5.8-2.4c0.9,1.8,2.8,2.7,4.8,2.2
	c2.2-0.5,4.1-2.1,4.9-4.3c0.2,0.5,0.4,0.9,0.6,1.4c0,0.1-0.1,0.1-0.1,0.2c-3.5,5.5-8,16.6,0.6,19.7c4.2,1.5,9.3,0.9,13.7,0"/>
<path class="st3" d="M33.6,62.8c2.2,1.6,5.1,1.6,7.2-0.1c2.5-2,3-5.9,2.6-9c-1.3-0.1-2.6-0.3-3.9-0.6c-0.8-0.3-1.6-0.5-2.4-0.6
	c-0.6,0.1-1.2,0.3-1.8,0.5c-0.5,0.1-0.9,0.2-1.3,0.3c-0.9,0.2-1.8,0.3-2.7,0.4h-0.5c0,1.1,0,2.2,0.2,3.3
	C31.3,59.1,31.9,61.4,33.6,62.8z"/>
<path class="st4" d="M37.4,52.8c-0.3,0.9-0.4,1.9-0.5,2.9c-0.1,1.6-0.1,3.2-0.1,4.8c0,1,0.1,2.1,0.3,3.1c0-0.2,0-0.4,0-0.5v-2.7
	c0-0.2,0-0.4,0-0.5c-0.1-0.4-0.2-0.7-0.2-1.1c0-0.2,0-0.5-0.1-0.7s0-0.2,0-0.2v-0.1c0-0.6,0-0.2,0,1.2s0,1.8,0,1.3v-0.1
	c0-0.1,0-0.2,0-0.2c0-0.2,0-0.3,0-0.5s0.1-0.6,0.1-0.9c0.1-0.6,0.2-1.3,0.4-1.9c0-0.2,0-0.4,0-0.5c0-0.4,0-0.9,0-1.3s0-0.9,0-1.3
	C37.3,53.1,37.3,53,37.4,52.8L37.4,52.8z"/>
<path class="st5" d="M32.2,25c-0.5-0.4-1.1-0.5-1.6-0.5c-0.6,0-1.3,0.1-1.9,0.4c-1.1,0.6-1.7,1.7-1.5,2.9c0,0.6,0.2,1.2,0.6,1.7
	c0.5,0.4,1.1,0.6,1.8,0.6h0.1c1.2,0.1,2.4-0.6,3-1.6c0.2-0.6,0.3-1.3,0.3-1.9C32.9,25.9,32.6,25.4,32.2,25z"/>
<path class="st5" d="M49,25.1c-1-0.7-2.4-0.8-3.5-0.2c-1.1,0.5-1.7,1.7-1.6,2.9c0,0.6,0.2,1.3,0.6,1.7c0.5,0.4,1.2,0.7,1.9,0.6
	c1.2,0.1,2.4-0.5,3-1.6c0.3-0.6,0.4-1.3,0.3-1.9C49.6,26,49.4,25.5,49,25.1z"/>
<path class="st5" d="M30.9,18.3c-4.2,0-7.7,3.3-8.1,7.4c-0.7,5.1,1.7,8.7,7.1,8.9c4.6-0.2,7.9-2.9,8.5-7.5
	C39,22,36.4,18.1,30.9,18.3z M30.2,33c-3.5-0.1-5.6-1.9-5.8-5.4c-0.2-3.9,1.7-7.4,6-7.6c3.8-0.2,6.2,2,6.2,5.8
	C36.7,29.9,34.5,32.8,30.2,33z"/>
<path class="st5" d="M47.9,18.3c-9.9-0.1-11.5,15.9-1.1,16.3h0.1H47c4.3-0.2,7.5-2.9,7.9-7.1C55.4,22.6,53.3,18.4,47.9,18.3z
	 M53.2,28.3c-0.8,2.9-3.5,4.2-6.4,4.4c-4.1-0.2-6-2.8-5.4-6.8c0.6-3.8,3.5-5.9,7.3-5.5C52.8,20.7,54.2,24.7,53.2,28.3L53.2,28.3z"/>
<path class="st5" d="M19.8,19.9c0.2,2.4,0,4.8-0.5,7.2c-0.3,1.2-1.1,4.9-2.8,5c-2.7,0.2-3.1-6.4-3.2-9.1c0-0.2,0-0.4,0-0.6
	c0-0.1,0-0.3-0.1-0.4c-0.1-0.5-0.6-0.6-1-0.4s-0.8,0.3-0.9,0.7c0,1.7-1.5,12.4-5,9.7c-3-2.2-2.8-9.1-2.6-12.2c0.1-1.1-1.9-1-2-0.1
	C1.5,23.3,1.3,33,6.5,34c2.9,0.5,4.6-1.9,5.6-4.8c0.6,2.7,1.9,5.1,4.5,4.5c5.2-1.1,5.2-10.5,5-14.2C21.6,18.4,19.8,19,19.8,19.9z"/>
<path class="st5" d="M65.9,10c-2.4-0.2-4.8,1.1-5.8,3.3c-0.8,1.8-1.3,3.7-1.3,5.6c-1,0.1-2,0.3-3,0.5s-1.1,2.1,0,1.9
	c0.9-0.2,1.9-0.4,2.9-0.5c0,1.3,0,2.6,0,3.8c-0.1,3-0.3,6.1-0.4,9.1c0,1.3,1.5,0.5,1.6-0.5c0.2-4.2,0.3-8.4,0.6-12.6
	c1.7-0.2,3.4,0.1,5,0.6c0.9,0.4,1.7-1.5,0.8-1.8c-1.8-0.7-3.8-0.9-5.7-0.7c0.1-2.3,0.2-4.9,2.3-6.3c3.3-2,5.7,1.2,6.2,4.1
	c0.2,1.3,1.7,0.5,1.6-0.5C70.2,13.4,69.1,10.4,65.9,10z"/>
<path class="st5" d="M52.1,37.6c0.1,0.4-0.1,0.9,0,1.3c0.6,1.7,1,3.4,1.3,5.2c0.2,1.2,0.2,2.4-0.2,3.5c-0.5,1.7-1.6,3.1-3.2,3.8
	c-2.9,1.5-6.7,1.1-9.8,0.5c-0.9-0.2-1.9-0.6-2.9-0.7h-0.2v-0.3c0-0.5,0-1,0-1.5l0,0c0-0.5,0.1-1,0.2-1.5c0.1-0.8,0.3-1.5,0.5-2.3
	c1.5-0.8,3-1.8,4.2-3c0.8-0.7,1.5-1.6,1.7-2.6c0.2-1.1-0.8-2.2-1.6-2.8c-2.2-1.8-5.8-1.9-8.5-0.9c-1,0.4-2.4,1.1-2.6,2.3
	s0.5,2.2,1.2,3c1.3,1.6,3,2.9,4.8,3.9c0,0.1,0,0.1,0,0.2c-0.1,1.8-0.1,3.7-0.1,5.5c-0.8,0.1-1.5,0.3-2.3,0.6
	c-1.6,0.4-3.2,0.7-4.9,0.8c-4.1,0.1-7.6-1.7-8.6-5.9c-0.1-0.4-0.2-0.9-0.2-1.3c0-0.3,0-0.6-0.1-0.8l0,0c0,0,0-0.1,0-0.2
	c0.1-0.8,0.1-1.6,0.3-2.4c0.1-0.8,0.3-1.6,0.5-2.4c0.1-0.4-0.1-0.9,0-1.3c-1.7,5.3-1.9,13.9,5,15.4c1,0.2,2,0.3,3.1,0.2
	c0,1,0,2,0.1,3c0.2,2.2,0.8,4.7,2.6,6.3c2,1.8,5.2,1.8,7.5,0.6c2.1-1.2,3.5-3.4,3.8-5.9c0.2-1.3,0.3-2.7,0.2-4
	c2.1,0.2,4.1-0.2,6-1.1C55.4,49.9,53.6,42,52.1,37.6z M40.8,62.7c-2.1,1.7-5.1,1.7-7.2,0.1c-1.7-1.4-2.3-3.7-2.6-5.8
	c-0.1-1.1-0.2-2.2-0.2-3.3h0.5c0.9-0.1,1.8-0.2,2.7-0.4c0.5-0.1,0.9-0.2,1.3-0.3c0.6-0.2,1.2-0.4,1.8-0.5c0.8,0.1,1.6,0.4,2.4,0.6
	c1.3,0.3,2.6,0.5,3.9,0.6C43.8,56.8,43.3,60.7,40.8,62.7z"/>
<path class="st5" d="M29.1,45.4c0.4-0.1,0.7-0.4,0.7-0.8c0-0.3-0.2-0.6-0.5-0.6c-0.4-0.1-0.7,0-1,0.3c-0.2,0.2-0.2,0.6-0.1,0.8
	C28.4,45.4,28.8,45.5,29.1,45.4z"/>
<ellipse class="st5" cx="26.8" cy="48.2" rx="0.6" ry="0.6"/>
<path class="st5" d="M30.3,48.6c0.4,0,0.7-0.2,0.7-0.6c0,0,0,0,0,0c0-0.4-0.3-0.6-0.7-0.6c-0.4,0-0.6,0.3-0.6,0.6
	C29.7,48.3,30,48.5,30.3,48.6z"/>
<path class="st5" d="M44.5,45.5c0.4,0.1,0.7,0,1-0.3c0.2-0.2,0.3-0.6,0.1-0.9c-0.3-0.4-0.8-0.5-1.2-0.2c-0.2,0.1-0.3,0.4-0.3,0.6
	C44,45.1,44.2,45.4,44.5,45.5z"/>
<path class="st5" d="M46.9,48.8c0.4,0,0.6-0.3,0.6-0.6c0-0.4-0.3-0.6-0.6-0.6c-0.4,0-0.6,0.3-0.6,0.6C46.3,48.6,46.6,48.8,46.9,48.8
	C46.9,48.8,46.9,48.8,46.9,48.8z"/>
<path class="st5" d="M42.8,47.9c0,0.4,0.3,0.6,0.7,0.6c0.4,0,0.6-0.3,0.6-0.6c0-0.4-0.3-0.6-0.7-0.6C43.1,47.3,42.8,47.6,42.8,47.9z
	"/>
</svg>
