<svg id="Layer_1" data-name="Layer 1" xmlns="http://www.w3.org/2000/svg" viewBox="0 0 70.97 56.33"><defs><style>.cls-1{fill:#fff;}.cls-2{fill:#e89bc1;}.cls-3{fill:#58595b;}.cls-4{fill:#231f20;}</style></defs><path class="cls-1" d="M71.74,15.15c-.51-3.26-2-7-5.74-7.34-2.93-.29-5.59,1.64-7,4.12A13,13,0,0,0,57.65,17c-.63.11-1.25.22-1.84.35A2.53,2.53,0,0,0,54.08,19a7.64,7.64,0,0,0-6-2.8,8.63,8.63,0,0,0-8.33,5.43c-1-3.3-3.85-5.43-8.14-5.24a10.15,10.15,0,0,0-7.87,4.06c0-.64,0-1.25,0-1.78-.16-3.06-5-1.39-4.86,1.11a25.44,25.44,0,0,1-.38,6.86,12.64,12.64,0,0,1-.78,2.54,5.13,5.13,0,0,1-.41.81c-1.35-1.37-1.67-4.22-1.78-6.52.06-.53.09-1,.1-1.5a1.73,1.73,0,0,0-.2-.93c-.19-1.42-1.53-1.64-2.75-1.17-1.15.11-2.21.74-2.25,1.85a20.09,20.09,0,0,1-.95,6.06,25.8,25.8,0,0,1-1.27,2.52c-.28-.46-.78-1.18-.86-1.36a13.76,13.76,0,0,1-.8-2.75,25.73,25.73,0,0,1-.38-6.84c.21-2.84-5-2.76-5.2-.25C.57,23.67.61,33.69,6.77,34.76a5.64,5.64,0,0,0,5.7-2.38,4.06,4.06,0,0,0,4.7,2.24A7,7,0,0,0,22,30.33a8.07,8.07,0,0,0,.59,1.38c0,.05-.11.09-.14.15-3.45,5.49-7.88,16.62.61,19.78,4.19,1.55,9.18.86,13.49,0l.84.19c0,.21,0,.42,0,.62s0-.43,0-.26v-.35a30.83,30.83,0,0,0,8.33.79c4.82-.22,10.6-2.1,11.28-7.59.53-4.22-1.27-8.56-3.12-12.33a9.73,9.73,0,0,0,2.2-5.5,13.79,13.79,0,0,0-.39-4.92l.18,0L57.46,22c0,.69,0,1.38-.05,2q-.22,4.79-.39,9.57a1.79,1.79,0,0,0,2.22,1.82c1.36-.33,1.86-2,1.9-3.16q.2-5.31.47-10.62a8.87,8.87,0,0,1,3.11.6c2.44,1,4.47-3.87,2-4.89a12.41,12.41,0,0,0-5-.8,3.89,3.89,0,0,1,1.45-3.26c2.38-1.46,4.05,1.07,4.38,3.17C68.14,19.89,72.16,17.88,71.74,15.15Z" transform="translate(-0.79 -7.78)"/><path class="cls-2" d="M43.89,52.48l-4.62,0a1.93,1.93,0,0,0-3.57,0l-4.82-.06s-1.26,12.14,6.71,11.51S43.89,52.48,43.89,52.48Z" transform="translate(-0.79 -7.78)"/><path class="cls-3" d="M37.64,52.4a14.71,14.71,0,0,0-.5,2.88c-.14,1.58-.09,3.19-.08,4.78a14.26,14.26,0,0,0,.33,3.12,3.33,3.33,0,0,1,0-.55c0-.44,0-.88,0-1.32s0-.88,0-1.33a2.43,2.43,0,0,0,0-.54,10.83,10.83,0,0,1-.21-1.11c0-.23,0-.45-.07-.67s0-.17,0-.25v-.12q0-.85,0,1.23c0,1.37,0,1.81,0,1.34v-.14a1.62,1.62,0,0,0,0-.22c0-.18,0-.36,0-.54s.07-.62.12-.94a13.32,13.32,0,0,1,.38-1.88,3.41,3.41,0,0,0,0-.55V53a2.06,2.06,0,0,1,0-.55Z" transform="translate(-0.79 -7.78)"/><path class="cls-4" d="M52.15,37.19c.13.39-.14.92,0,1.32a28.94,28.94,0,0,1,1.28,5.17,7.25,7.25,0,0,1-.19,3.53,6.2,6.2,0,0,1-3.16,3.85c-2.9,1.48-6.55,1.11-9.64.48-.93-.19-1.9-.62-2.83-.73-.06,0-.11,0-.17,0s0-.23,0-.35V49h0c0-.52.09-1,.16-1.53a17.56,17.56,0,0,1,.48-2.29,20.9,20.9,0,0,0,4.17-3A5,5,0,0,0,44,39.62c.18-1.14-.74-2.21-1.56-2.86-2.21-1.76-5.76-1.91-8.33-.94-1,.39-2.31,1.15-2.54,2.32a4.1,4.1,0,0,0,1.18,3,16.6,16.6,0,0,0,4.73,3.92,1.23,1.23,0,0,0,0,.19,53.47,53.47,0,0,0,0,5.52,10.33,10.33,0,0,0-2.24.55,22.7,22.7,0,0,1-4.78.7c-4.09.11-7.55-1.73-8.45-5.9a11.68,11.68,0,0,1-.2-1.3c0-.29,0-.57-.06-.85v0s0-.1,0-.18c.07-.82.14-1.62.28-2.44A18.88,18.88,0,0,1,22.49,39c.13-.41-.13-.93,0-1.33-1.65,5.28-1.83,14,4.9,15.45a12.33,12.33,0,0,0,3,.25,23.08,23.08,0,0,0,.11,3c.23,2.22.82,4.71,2.52,6.29,2,1.81,5.11,1.78,7.38.61a7.76,7.76,0,0,0,3.77-5.88,15.89,15.89,0,0,0,.18-4,11.15,11.15,0,0,0,5.9-1.11C55.42,49.46,53.61,41.57,52.15,37.19ZM41,62.35a5.76,5.76,0,0,1-7.13.13c-1.64-1.44-2.25-3.75-2.52-5.84a20.11,20.11,0,0,1-.16-3.3c.16,0,.33,0,.49,0a24.14,24.14,0,0,0,2.66-.43c.44-.09.88-.2,1.32-.31a8.15,8.15,0,0,1,1.76-.5,14.05,14.05,0,0,1,2.32.64,28.64,28.64,0,0,0,3.85.63C43.92,56.45,43.44,60.31,41,62.35Z" transform="translate(-0.79 -7.78)"/><path class="cls-4" d="M29.47,45.07a.81.81,0,0,0,.7-.76.68.68,0,0,0-.49-.64,1,1,0,0,0-1,.29.68.68,0,0,0-.06.81A.8.8,0,0,0,29.47,45.07Z" transform="translate(-0.79 -7.78)"/><circle class="cls-4" cx="26.43" cy="40.02" r="0.64"/><path class="cls-4" d="M30.66,48.17a.64.64,0,1,0-.63-.63A.63.63,0,0,0,30.66,48.17Z" transform="translate(-0.79 -7.78)"/><path class="cls-4" d="M44.61,45.08a.91.91,0,0,0,1-.26.72.72,0,0,0,.08-.86.81.81,0,0,0-.85-.34.82.82,0,0,0-.7.76A.73.73,0,0,0,44.61,45.08Z" transform="translate(-0.79 -7.78)"/><path class="cls-4" d="M47.05,48.44a.64.64,0,0,0,0-1.28.64.64,0,0,0,0,1.28Z" transform="translate(-0.79 -7.78)"/><path class="cls-4" d="M43,47.54a.64.64,0,1,0,.64-.64A.63.63,0,0,0,43,47.54Z" transform="translate(-0.79 -7.78)"/><path class="cls-4" d="M32.52,24.56A2.54,2.54,0,0,0,30.89,24a3.9,3.9,0,0,0-1.84.37,3,3,0,0,0-1.52,2.93,2.36,2.36,0,0,0,.64,1.7,2.58,2.58,0,0,0,1.76.58H30A3.05,3.05,0,0,0,32.92,28,4,4,0,0,0,33.19,26,2.19,2.19,0,0,0,32.52,24.56Z" transform="translate(-0.79 -7.78)"/><path class="cls-4" d="M49.13,24.58c-.86-.82-2.47-.68-3.48-.22A2.94,2.94,0,0,0,44,27.23a2.49,2.49,0,0,0,.6,1.76,2.55,2.55,0,0,0,1.84.62,3.17,3.17,0,0,0,3-1.59,3.9,3.9,0,0,0,.31-1.91A2.28,2.28,0,0,0,49.13,24.58Z" transform="translate(-0.79 -7.78)"/><path class="cls-4" d="M31.22,17.82a8.21,8.21,0,0,0-8,7.47c-.71,5.13,1.71,8.74,7,8.94,4.54-.18,7.82-2.89,8.43-7.49C39.28,21.55,36.69,17.59,31.22,17.82Zm-.61,14.72c-3.46-.14-5.52-2-5.71-5.43-.21-3.89,1.64-7.39,5.87-7.6,3.77-.18,6.08,2,6.13,5.85C37,29.41,34.79,32.37,30.61,32.54Z" transform="translate(-0.79 -7.78)"/><path class="cls-4" d="M48,17.84c-9.77-.09-11.28,16-1.09,16.35l.09,0,.11,0A7.7,7.7,0,0,0,54.89,27C55.37,22.16,53.31,17.9,48,17.84Zm5.21,10c-.81,2.94-3.5,4.25-6.35,4.38-4-.21-5.87-2.83-5.28-6.86.54-3.77,3.45-5.87,7.2-5.54C52.85,20.18,54.19,24.22,53.2,27.85Z" transform="translate(-0.79 -7.78)"/><path class="cls-4" d="M20.33,19.45a26.5,26.5,0,0,1-.44,7.22c-.27,1.24-1.07,4.88-2.8,5-2.64.16-3.08-6.44-3.18-9.1q0-.35,0-.63a.7.7,0,0,0-.09-.37c-.08-.51-.57-.59-1-.41s-.83.27-.84.68c-.05,1.7-1.44,12.42-5,9.73C4.06,29.3,4.25,22.42,4.48,19.29c.07-1.06-1.89-1-2-.1-.27,3.65-.45,13.38,4.69,14.35,2.86.54,4.56-1.93,5.53-4.83.65,2.74,1.91,5.09,4.45,4.56,5.14-1.08,5.16-10.54,5-14.24C22.09,17.89,20.28,18.51,20.33,19.45Z" transform="translate(-0.79 -7.78)"/><path class="cls-4" d="M65.77,9.42A6,6,0,0,0,60,12.75a13.12,13.12,0,0,0-1.24,5.63c-1,.14-2,.32-2.92.51s-1.09,2.1,0,1.87c.88-.18,1.85-.36,2.83-.49,0,1.33,0,2.63,0,3.78-.15,3.05-.27,6.11-.38,9.16-.05,1.29,1.51.5,1.54-.5q.24-6.3.56-12.61a11.39,11.39,0,0,1,4.94.64c.92.38,1.68-1.45.76-1.83a12.54,12.54,0,0,0-5.62-.7c.07-2.34.16-4.92,2.32-6.28,3.24-2,5.63,1.18,6.09,4.14.2,1.28,1.71.52,1.55-.5C70,12.85,68.86,9.84,65.77,9.42Z" transform="translate(-0.79 -7.78)"/></svg>